<?xml version="1.0" encoding="UTF-8" standalone="no"?>
<svg xmlns="http://www.w3.org/2000/svg" version="1.1" viewBox="-30 -30 481 481">
  <g stroke-width="2.00" fill="none" stroke-linecap="butt">
    <path stroke="#2c7d97" vector-effect="non-scaling-stroke"
      d="
  M 233.22 116.03
  Q 240.50 119.25 246.77 123.52
  Q 249.77 125.57 249.76 128.75
  Q 249.72 141.56 249.90 154.37
  C 249.92 155.76 249.82 157.54 250.82 158.44
  Q 266.58 172.58 272.11 190.73
  C 279.75 215.80 272.18 246.28 251.47 263.71
  Q 250.02 264.94 249.97 266.50
  Q 249.72 274.22 249.66 290.25
  C 249.65 293.48 249.65 295.94 246.93 297.44
  C 238.17 302.31 230.58 305.73 219.80 307.77"
    />
    <path stroke="#abecff" vector-effect="non-scaling-stroke"
      d="
  M 219.80 307.77
  Q 223.66 308.54 227.52 308.03
  C 230.42 307.65 233.28 307.37 236.09 306.41
  C 241.36 304.62 247.32 302.98 251.92 301.04
  C 294.92 282.93 321.48 233.34 309.42 188.01
  Q 298.76 147.97 262.43 126.33
  Q 249.93 118.89 233.22 116.03"
    />
  </g>
  <path fill="#00202f"
    d="
  M 256.01 415.04
  C 179.35 433.28 95.23 403.00 47.04 340.96
  C 8.26 291.05 -7.10 226.25 6.85 164.45
  C 32.11 52.50 145.40 -20.85 258.50 6.55
  C 367.62 32.98 438.33 142.87 414.57 252.71
  C 397.00 333.95 337.01 395.78 256.01 415.04
  Z
  M 233.22 116.03
  Q 240.50 119.25 246.77 123.52
  Q 249.77 125.57 249.76 128.75
  Q 249.72 141.56 249.90 154.37
  C 249.92 155.76 249.82 157.54 250.82 158.44
  Q 266.58 172.58 272.11 190.73
  C 279.75 215.80 272.18 246.28 251.47 263.71
  Q 250.02 264.94 249.97 266.50
  Q 249.72 274.22 249.66 290.25
  C 249.65 293.48 249.65 295.94 246.93 297.44
  C 238.17 302.31 230.58 305.73 219.80 307.77
  C 208.18 310.00 195.81 309.32 184.00 309.02
  Q 183.48 309.00 183.49 309.52
  L 183.65 352.97
  A 0.48 0.48 0.0 0 0 184.10 353.45
  Q 199.32 354.61 212.50 354.45
  C 249.46 354.01 284.27 340.66 311.22 315.60
  C 359.31 270.87 371.84 199.79 339.10 142.17
  C 312.97 96.16 264.92 68.34 211.99 67.49
  Q 197.87 67.26 183.85 67.85
  A 0.42 0.41 -2.1 0 0 183.45 68.27
  L 183.63 112.23
  A 0.63 0.63 0.0 0 0 184.30 112.86
  C 197.16 112.26 211.28 111.92 223.92 114.25
  Q 228.62 115.12 233.22 116.03
  Z
  M 148.05 112.73
  A 0.34 0.34 0.0 0 0 147.75 112.40
  L 103.99 107.40
  A 0.34 0.34 0.0 0 0 103.61 107.74
  L 103.71 318.81
  A 0.34 0.34 0.0 0 0 104.10 319.15
  L 147.81 313.27
  A 0.34 0.34 0.0 0 0 148.10 312.93
  L 148.05 112.73
  Z
  M 183.28 149.01
  L 183.72 273.13
  A 0.21 0.21 0.0 0 0 183.93 273.34
  L 202.98 273.28
  A 62.74 62.11 -0.2 0 0 265.50 210.95
  L 265.50 210.63
  A 62.74 62.11 -0.2 0 0 202.54 148.74
  L 183.49 148.80
  A 0.21 0.21 0.0 0 0 183.28 149.01
  Z"
  />
  <path fill="#ffffff"
    d="
  M 219.80 307.77
  Q 223.66 308.54 227.52 308.03
  C 230.42 307.65 233.28 307.37 236.09 306.41
  C 241.36 304.62 247.32 302.98 251.92 301.04
  C 294.92 282.93 321.48 233.34 309.42 188.01
  Q 298.76 147.97 262.43 126.33
  Q 249.93 118.89 233.22 116.03
  Q 228.62 115.12 223.92 114.25
  C 211.28 111.92 197.16 112.26 184.30 112.86
  A 0.63 0.63 0.0 0 1 183.63 112.23
  L 183.45 68.27
  A 0.42 0.41 -2.1 0 1 183.85 67.85
  Q 197.87 67.26 211.99 67.49
  C 264.92 68.34 312.97 96.16 339.10 142.17
  C 371.84 199.79 359.31 270.87 311.22 315.60
  C 284.27 340.66 249.46 354.01 212.50 354.45
  Q 199.32 354.61 184.10 353.45
  A 0.48 0.48 0.0 0 1 183.65 352.97
  L 183.49 309.52
  Q 183.48 309.00 184.00 309.02
  C 195.81 309.32 208.18 310.00 219.80 307.77
  Z"
  />
  <path fill="#ffffff"
    d="
  M 148.05 112.73
  L 148.10 312.93
  A 0.34 0.34 0.0 0 1 147.81 313.27
  L 104.10 319.15
  A 0.34 0.34 0.0 0 1 103.71 318.81
  L 103.61 107.74
  A 0.34 0.34 0.0 0 1 103.99 107.40
  L 147.75 112.40
  A 0.34 0.34 0.0 0 1 148.05 112.73
  Z"
  />
  <path fill="#57d9ff"
    d="
  M 219.80 307.77
  C 230.58 305.73 238.17 302.31 246.93 297.44
  C 249.65 295.94 249.65 293.48 249.66 290.25
  Q 249.72 274.22 249.97 266.50
  Q 250.02 264.94 251.47 263.71
  C 272.18 246.28 279.75 215.80 272.11 190.73
  Q 266.58 172.58 250.82 158.44
  C 249.82 157.54 249.92 155.76 249.90 154.37
  Q 249.72 141.56 249.76 128.75
  Q 249.77 125.57 246.77 123.52
  Q 240.50 119.25 233.22 116.03
  Q 249.93 118.89 262.43 126.33
  Q 298.76 147.97 309.42 188.01
  C 321.48 233.34 294.92 282.93 251.92 301.04
  C 247.32 302.98 241.36 304.62 236.09 306.41
  C 233.28 307.37 230.42 307.65 227.52 308.03
  Q 223.66 308.54 219.80 307.77
  Z"
  />
</svg>