<?xml version="1.0" encoding="UTF-8" standalone="no"?>
<svg xmlns="http://www.w3.org/2000/svg" version="1.2" baseProfile="tiny" viewBox="0.00 0.00 72.00 72.00">
<g stroke-width="2.00" fill="none" stroke-linecap="butt">
<path stroke="#f7b951" vector-effect="non-scaling-stroke" d="
  M 49.31 31.29
  C 41.11 38.21 38.19 46.74 42.85 56.90
  Q 43.81 58.98 44.97 59.78
  Q 45.54 60.18 46.00 59.91
  Q 46.41 59.68 46.18 59.26
  Q 37.40 43.94 50.49 32.56"
/>
<path stroke="#f7b951" vector-effect="non-scaling-stroke" d="
  M 10.32 28.42
  Q 11.51 29.14 11.95 29.79
  Q 17.00 37.19 22.16 44.63
  A 0.47 0.47 0.0 0 0 22.92 44.65
  L 23.08 44.44
  Q 23.56 43.82 23.11 43.17
  L 7.83 20.93"
/>
<path stroke="#f7b951" vector-effect="non-scaling-stroke" d="
  M 14.42 16.06
  L 29.10 37.16
  Q 29.38 37.56 29.80 37.31
  L 30.26 37.05
  A 0.64 0.64 0.0 0 0 30.47 36.14
  L 13.67 11.36"
/>
<path stroke="#f7b951" vector-effect="non-scaling-stroke" d="
  M 22.61 10.03
  L 37.29 31.39
  Q 37.71 32.00 38.30 31.55
  L 38.53 31.37
  A 0.71 0.71 0.0 0 0 38.67 30.42
  L 23.12 7.59"
/>
</g>
<path fill="#ffdc5d" d="
  M 49.31 31.29
  C 41.11 38.21 38.19 46.74 42.85 56.90
  Q 43.81 58.98 44.97 59.78
  Q 45.54 60.18 46.00 59.91
  Q 46.41 59.68 46.18 59.26
  Q 37.40 43.94 50.49 32.56
  Q 51.18 32.44 51.51 31.99
  Q 51.77 31.64 51.63 30.97
  Q 50.19 24.07 48.76 16.01
  A 3.13 3.13 0.0 0 1 51.14 12.40
  L 52.01 12.20
  Q 55.64 11.35 56.79 14.90
  Q 59.40 22.94 62.16 30.43
  C 63.41 33.80 65.98 38.36 66.92 42.50
  C 71.80 63.89 46.50 80.03 29.11 67.00
  Q 25.42 64.23 19.11 54.96
  Q 12.31 44.96 5.42 35.02
  C 2.79 31.22 6.11 27.36 10.32 28.42
  Q 11.51 29.14 11.95 29.79
  Q 17.00 37.19 22.16 44.63
  A 0.47 0.47 0.0 0 0 22.92 44.65
  L 23.08 44.44
  Q 23.56 43.82 23.11 43.17
  L 7.83 20.93
  Q 8.45 15.34 14.42 16.06
  L 29.10 37.16
  Q 29.38 37.56 29.80 37.31
  L 30.26 37.05
  A 0.64 0.64 0.0 0 0 30.47 36.14
  L 13.67 11.36
  C 15.38 6.35 20.16 5.27 22.61 10.03
  L 37.29 31.39
  Q 37.71 32.00 38.30 31.55
  L 38.53 31.37
  A 0.71 0.71 0.0 0 0 38.67 30.42
  L 23.12 7.59
  C 25.94 0.13 29.76 2.77 32.91 7.35
  Q 41.11 19.29 49.31 31.29
  Z"
/>
<g fill="#5dadec">
<path d="
  M 57.02 0.00
  L 60.23 0.00
  Q 69.98 2.08 72.00 11.89
  L 72.00 15.04
  Q 70.87 16.44 68.99 15.87
  A 1.55 1.55 0.0 0 1 67.88 14.47
  Q 67.33 4.66 57.50 4.12
  A 1.58 1.58 0.0 0 1 56.06 2.91
  Q 55.59 0.95 57.02 0.00
  Z"
/>
<path d="
  M 47.55 3.95
  C 59.12 3.80 69.08 12.47 67.96 24.54
  A 1.62 1.61 2.7 0 1 66.35 26.00
  L 65.87 26.00
  Q 63.88 26.00 63.84 24.01
  C 63.66 14.90 56.58 8.83 47.79 8.03
  Q 45.87 7.85 45.95 5.92
  L 45.97 5.49
  A 1.61 1.60 -89.0 0 1 47.55 3.95
  Z"
/>
<path d="
  M 7.93 47.46
  C 8.55 56.75 15.38 63.46 24.89 64.16
  A 1.36 1.36 0.0 0 1 26.09 65.92
  L 25.92 66.48
  Q 25.32 68.47 23.24 68.30
  Q 4.76 66.75 3.68 48.12
  A 2.01 2.00 88.2 0 1 5.67 46.00
  L 6.36 46.00
  A 1.57 1.56 87.9 0 1 7.93 47.46
  Z"
/>
<path d="
  M 14.96 72.00
  L 11.01 72.00
  Q 2.25 69.67 0.00 60.90
  L 0.00 56.97
  Q 2.00 55.16 3.29 56.34
  Q 3.97 56.96 4.14 58.83
  Q 4.74 65.53 11.10 67.50
  C 12.15 67.83 13.90 67.63 15.27 68.32
  A 1.21 1.19 -86.5 0 1 15.88 69.02
  Q 16.50 70.83 14.96 72.00
  Z"
/>
</g>
<g fill="#ef9645">
<path d="
  M 23.12 7.59
  L 38.67 30.42
  A 0.71 0.71 0.0 0 1 38.53 31.37
  L 38.30 31.55
  Q 37.71 32.00 37.29 31.39
  L 22.61 10.03
  L 23.12 7.59
  Z"
/>
<path d="
  M 13.67 11.36
  L 30.47 36.14
  A 0.64 0.64 0.0 0 1 30.26 37.05
  L 29.80 37.31
  Q 29.38 37.56 29.10 37.16
  L 14.42 16.06
  Q 12.40 14.20 13.67 11.36
  Z"
/>
<path d="
  M 7.83 20.93
  L 23.11 43.17
  Q 23.56 43.82 23.08 44.44
  L 22.92 44.65
  A 0.47 0.47 0.0 0 1 22.16 44.63
  Q 17.00 37.19 11.95 29.79
  Q 11.51 29.14 10.32 28.42
  C 9.07 25.91 6.62 24.04 7.83 20.93
  Z"
/>
<path d="
  M 49.31 31.29
  Q 49.82 32.08 50.49 32.56
  Q 37.40 43.94 46.18 59.26
  Q 46.41 59.68 46.00 59.91
  Q 45.54 60.18 44.97 59.78
  Q 43.81 58.98 42.85 56.90
  C 38.19 46.74 41.11 38.21 49.31 31.29
  Z"
/>
</g>
</svg>
